<?xml version="1.0" encoding="utf-8"?>
<!-- Generator: Adobe Illustrator 21.0.2, SVG Export Plug-In . SVG Version: 6.00 Build 0)  -->
<svg version="1.1" id="close" xmlns="http://www.w3.org/2000/svg" xmlns:xlink="http://www.w3.org/1999/xlink" x="0px" y="0px"
	 viewBox="0 0 22.5 20.6" style="enable-background:new 0 0 22.5 20.6;" xml:space="preserve">
<style type="text/css">
	.st0{fill:#FFFFFF;}
</style>
<title>refresh</title>
<path class="st0" d="M21.9,10.1h-2.6c-0.1-1-0.5-1.9-0.9-2.8h-4.1c0.8,0.8,1.4,1.7,1.6,2.8h-2.6l4.3,5.4l1.8-2.4h1.2v-0.8h-0.5
	L21.9,10.1z"/>
<path class="st0" d="M10.5,2.5H9.9v1.4H5.7C3.7,5.1,2.3,7,1.7,9.3H0.5v0.8h1.1c-0.2,1-0.2,2.1,0,3.1h3.2V14H1.8
	c1.1,3.9,4.6,6.6,8.7,6.6v-3.3c-2.9,0-5.3-2.1-5.7-4.9h1.4v-0.8H4.7c0-1.1,0.3-2.2,0.9-3.1H4.8V7.6h1.5c1.8-1.9,4.7-2.4,7-1.1H18
	C16.3,4,13.5,2.5,10.5,2.5z"/>
<rect y="4.8" class="st0" width="1.8" height="0.8"/>
<rect x="14.6" class="st0" width="1.8" height="0.8"/>
</svg>
