<?xml version="1.0" encoding="utf-8"?>
<!-- Generator: Adobe Illustrator 21.0.2, SVG Export Plug-In . SVG Version: 6.00 Build 0)  -->
<svg version="1.1" id="close" xmlns="http://www.w3.org/2000/svg" xmlns:xlink="http://www.w3.org/1999/xlink" x="0px" y="0px"
	 viewBox="0 0 17.9 18.9" style="enable-background:new 0 0 17.9 18.9;" xml:space="preserve">
<style type="text/css">
	.st0{fill:#FFFFFF;}
</style>
<title>skull-default</title>
<path class="st0" d="M5.5,19.1c0,0,0,0.7,0,1.4h1v0.7H5.7c0,0.2,0.1,0.4,0.2,0.5c0.4,0.3,0.8,0.4,1.2,0.5h4c0.5,0,0.9-0.3,1.1-0.7
	c0.4-0.7,0.6-1.5,0.6-2.4C9.4,21.2,5.5,19.1,5.5,19.1z"/>
<path class="st0" d="M17.2,4V3.2h-1.1C14.4,1,11.7-0.2,9,0C7.2-0.1,5.4,0.4,3.9,1.3h-1V2h4.9v0.7H0.7v0.7h1C1.3,4,1,4.6,0.7,5.2
	C0.5,5.6,0.3,6,0.3,6.5C0,8.5,0,10.4,0.2,12.4c1.1,0.9,2.2,1.7,3.4,2.5c1.2,0.4,1.9,1.5,2,2.8c1.2,1.7,5.8,1.6,7.2,0.1
	c0.1-0.9,0.5-1.8,1.2-2.4h-1.5v-0.7h3.2v-0.6c1.1-0.8,2.1-1.6,2.2-1.6C18,11.2,18,9.9,18,8.6h-0.6V7.9H18c0-0.8-0.1-1.7-0.3-2.5
	c-0.1-0.2-0.2-0.4-0.4-0.7h-2V4H17.2z M3.1,13.2L3.1,13.2c-1.5-0.9-2.2-1.8-1.8-3.5C1.4,9,1.7,8.4,2,7.8c0.1-0.1,0.3-0.2,0.5-0.1
	c0,0,0,0,0.1,0.1C4,9.3,6,10.3,8.2,10.5c0.2,0,0.3,0.2,0.3,0.4l0,0C8.2,12.6,4.8,13.7,3.1,13.2z M6.8,16.4c0.4-1.3,0.9-2.5,1.6-3.6
	c0.1-0.3,0.4-0.4,0.7-0.2c0.1,0,0.2,0.1,0.2,0.2c0.7,1.2,1.2,2.4,1.7,3.7C10.9,17,6.8,17.3,6.8,16.4z M16,7.8c0.4,0.6,0.7,1.3,0.8,2
	c0.4,1.7-0.3,2.6-1.8,3.5c-1.7,0.5-5.1-0.6-5.5-2.4c0-0.2,0.1-0.4,0.3-0.4l0,0c1.2-0.1,2.3-0.5,3.3-1h-0.8V8.7h3.4V8h-0.6l0.2-0.2
	C15.6,7.6,15.8,7.6,16,7.8L16,7.8z"/>
</svg>
