<svg id="close" xmlns="http://www.w3.org/2000/svg" width="169.95" height="24.9" viewBox="0 0 169.95 24.9"><defs><style>.cls-1{fill:#fff;}</style></defs><title>title</title><polygon class="cls-1" points="72.91 14.15 72.91 13.06 70.31 13.06 70.31 16.2 78.48 16.2 78.48 14.15 72.91 14.15"/><rect class="cls-1" x="13.51" y="2.24" width="1.92" height="0.46"/><rect class="cls-1" x="16.38" y="18.23" width="13.36" height="0.46"/><rect class="cls-1" x="58.73" y="16.91" width="13.36" height="0.46"/><polygon class="cls-1" points="83.66 8.73 72.91 8.73 72.91 6.76 75.39 6.76 75.39 4.72 70.31 4.72 70.31 11.81 72.91 11.81 72.91 10.84 77.8 10.84 77.8 9.18 83.66 9.18 83.66 8.73"/><rect class="cls-1" x="91.56" y="3.82" width="10.27" height="0.46"/><rect class="cls-1" x="61.17" y="20.61" width="1.92" height="0.46"/><rect class="cls-1" x="45.59" y="23.58" width="1.92" height="0.46"/><rect class="cls-1" x="35.44" width="1.92" height="0.46"/><rect class="cls-1" x="47.37" y="4.42" width="1.92" height="0.46"/><rect class="cls-1" x="113.49" y="0.91" width="1.92" height="0.46"/><rect class="cls-1" x="143.19" y="24.4" width="1.92" height="0.46"/><rect class="cls-1" x="69.57" y="24.45" width="1.92" height="0.46"/><rect class="cls-1" x="95.3" y="16.15" width="1.92" height="0.46"/><polygon class="cls-1" points="22.15 8.38 22.15 6.28 13.41 6.28 13.41 8.38 16.47 8.38 16.47 16.52 19.07 16.52 19.07 13.25 17.3 13.25 17.3 12.62 20 12.62 20 11.93 19.07 11.93 19.07 8.38 22.15 8.38"/><polygon class="cls-1" points="40.95 5.4 40.95 6.24 39.53 6.24 39.53 6.87 43.55 6.87 43.55 5.4 40.95 5.4"/><polygon class="cls-1" points="47.89 14.12 47.89 13.46 43.55 13.46 43.55 7.51 40.95 7.51 40.95 14.12 47.89 14.12"/><polygon class="cls-1" points="47.89 16.22 47.89 15.38 40.95 15.38 40.95 16.26 41.55 16.26 41.55 16.68 48.97 16.68 48.97 16.22 47.89 16.22"/><rect class="cls-1" x="13.57" y="4.36" width="4.33" height="0.46"/><rect class="cls-1" x="98.68" y="9.53" width="0.87" height="0.46"/><rect class="cls-1" x="88.77" y="15.24" width="1.92" height="0.46"/><path class="cls-1" d="M112.06,12.26A3.41,3.41,0,0,0,113.91,9c0-2.28-1.55-3.57-4.25-3.57h-3.28v.53h-2V6.4h.75v7.81h2.6V12.75h2l1.52,2.88h3Zm-2.4-1.55h-2V9.16h1.19V8.7H107V8.29h.73V7.45h2a1.62,1.62,0,0,1,1.64.85h.76v.46h-.63a2.53,2.53,0,0,1,0,.31A1.56,1.56,0,0,1,109.66,10.71Z"/><polygon class="cls-1" points="104.19 15.31 104.19 15.73 105.34 15.73 105.34 16.19 104.19 16.19 104.19 16.73 106.79 16.73 106.79 15.31 104.19 15.31"/><polygon class="cls-1" points="30.8 13.73 29.98 13.73 29.85 13.73 30.23 14.61 31.93 14.61 32.31 13.73 30.8 13.73"/><polygon class="cls-1" points="37.28 14.32 37.28 13.66 36.7 13.66 36.7 5.39 33.86 5.39 33.08 7.1 34.82 7.1 34.82 7.73 32.79 7.73 31.08 11.48 28.31 5.39 25.45 5.39 25.45 15.63 27.78 15.63 27.78 13.73 26.69 13.73 26.69 13.27 27.78 13.27 27.78 8.98 29.65 13.27 29.98 13.27 30.8 13.27 32.51 13.27 34.39 8.98 34.4 13.27 34.84 13.27 34.84 13.73 34.4 13.73 34.4 15.63 36.7 15.63 36.7 14.95 35.62 14.95 35.62 14.32 37.28 14.32"/><rect class="cls-1" x="26.69" y="12.82" width="1.92" height="0.46"/><rect class="cls-1" x="31.38" y="12.82" width="1.92" height="0.46"/><rect class="cls-1" x="143.96" y="4.2" width="2.62" height="0.46"/><polygon class="cls-1" points="139.94 6.99 141.25 6.99 141.25 6.53 140.18 6.53 140.79 5.4 138.19 5.4 135.78 9.86 134.17 6.96 131.58 7.02 134.49 12.4 134.49 13.48 134.42 13.48 134.42 13.94 133.54 13.94 133.54 14.39 133.82 14.39 133.82 14.38 135.32 14.38 135.32 14.84 134.49 14.84 134.49 15.63 137.08 15.63 137.08 13.94 141 13.94 141 13.48 135.5 13.48 135.5 13.03 137.08 13.03 137.08 12.33 139.69 7.45 138.46 7.45 138.46 6.99 139.94 6.99"/><polygon class="cls-1" points="77.59 4.3 77.59 3.69 76.62 3.69 76.62 5.38 78.08 5.38 78.08 6.01 79.31 6.01 79.31 4.3 77.59 4.3"/><rect class="cls-1" x="76.52" y="17.82" width="1.92" height="0.46"/><path class="cls-1" d="M61.21,15.91a5.21,5.21,0,0,0,5.23-3.34H67v-.63H63.92a2.61,2.61,0,0,1-2.56,1.9H59.51V12.57H60v-.63H56.91v3.51h1.88v.46"/><polygon class="cls-1" points="157.26 16.39 158.58 16.39 158.58 16.38 158.58 15.95 155.96 15.95 155.96 16.38 155.96 16.4 155.96 16.84 157.26 16.84 157.26 16.39"/><rect class="cls-1" x="0.65" y="14.21" width="2.6" height="1.14"/><polygon class="cls-1" points="15.71 10.23 0.65 10.23 0.65 13.75 3.25 13.75 3.25 11.38 7.49 11.38 7.49 13.3 6.04 13.3 6.04 13.75 9.54 13.75 9.54 14.21 7.49 14.21 7.49 15.35 10.1 15.35 10.1 10.69 15.71 10.69 15.71 10.23"/><polygon class="cls-1" points="9.44 5.13 9.44 3.86 6.84 3.86 6.84 8.07 2.6 8.07 2.6 3.86 0 3.86 0 5.21 1.35 5.21 1.35 5.67 0 5.67 0 9.62 9.44 9.62 9.44 6.05 8.32 6.05 8.32 5.6 9.44 5.6 9.44 5.59 10.24 5.59 10.24 5.13 9.44 5.13"/><rect class="cls-1" x="25.39" y="4.3" width="1.92" height="0.46"/><polygon class="cls-1" points="95.4 5.94 95.4 5.39 93.04 5.39 93.04 7.49 96.09 7.49 96.09 12.36 95.39 12.36 95.39 12.82 96.09 12.82 96.26 12.82 97.08 12.82 97.08 13.27 96.09 13.27 96.09 15.63 98.69 15.63 98.69 9.98 97.36 9.98 97.36 9.53 98.69 9.53 98.69 7.49 101.78 7.49 101.78 5.94 95.4 5.94"/><rect class="cls-1" x="112.62" y="19.24" width="1.92" height="0.46"/><path class="cls-1" d="M170,12.58v-.46h-6.48l-.52-.82A3.41,3.41,0,0,0,164.8,8a4,4,0,0,0-.19-1.2h-1.55V6.35h2.54v-.5h-1.48a4.27,4.27,0,0,0-3.57-1.41H156V5h1.51v.46h-2.05v.41H156V9.47h-9.44v-2h5.41V6.28h.75V5.83h-3.11V5.4h-5.65v.77h1.56v.46h-1.56v7.74h5.95v.46h-7.73v.48h1.79v.33h8.17v-2h-5.57V11.53h4.88V10.42h-5.58V10h12.28v.44H156v4.27h2.6V11.79h2l1.52,2.88h.75v-.49h2.34v-.48h-.75L164,13h-1.46v-.46H170Zm-9.4-2.83h-2V6.49h2c1.13,0,1.78.54,1.78,1.61A1.56,1.56,0,0,1,160.55,9.75Z"/><path class="cls-1" d="M61.31,4.72h-4.4V5.3H47.36v.46H60.72v.46H56.91V9.7H55.32v.63h1.59v0h2.6V6.79h1.74A2.84,2.84,0,0,1,64.1,9.85a3.9,3.9,0,0,1,0,.5H66.7c0-.17,0-.34,0-.52C66.75,6.79,64.52,4.72,61.31,4.72Z"/><path class="cls-1" d="M90.88,12v-.46H88.65c-1.58-.77-3.71-.8-3.71-1.9,0-.5.45-.75,1.13-.75A7.62,7.62,0,0,1,89.34,10l1-2a7.68,7.68,0,0,0-4-1.14,11.13,11.13,0,0,0-2.36.41H82v.46h5.64v.48H82.8a2.72,2.72,0,0,0-.6,1.73,2.47,2.47,0,0,0,.57,1.67H81.3V12h2c1.58,1.11,4.32.93,4.32,2.23,0,.58-.51.89-1.33.89a6.37,6.37,0,0,1-3.7-1.53l-.68,1.35H80.77v.46h2v.46H82a7.65,7.65,0,0,0,4.29,1.37,4.65,4.65,0,0,0,3.22-1.08H88.24V15.7h1.62a2.77,2.77,0,0,0,.49-1.59,2.62,2.62,0,0,0-.52-1.65H86.92V12Z"/><rect class="cls-1" x="129.15" y="4.02" width="1.71" height="0.41"/><polygon class="cls-1" points="117.39 12.85 117.39 13.26 116.7 13.26 116.7 13.66 118.41 13.66 118.41 13.26 119.1 13.26 119.1 12.85 117.39 12.85"/><path class="cls-1" d="M121.68,14.91s0,.38,0,.75h.57v.41h-.52a.57.57,0,0,0,.11.29,2.12,2.12,0,0,0,.68.3h2.2a.67.67,0,0,0,.6-.37,2.78,2.78,0,0,0,.33-1.32A4.48,4.48,0,0,1,121.68,14.91Z"/><path class="cls-1" d="M128.87,6.54V6.09h-1.33a4.65,4.65,0,0,0-4-1.76,5,5,0,0,0-2.81.7h-3.62v.41h5.78v.41H119v.41h.56a8.25,8.25,0,0,0-.58.94h-.72v.33h-.73v.41h1.24a12.68,12.68,0,0,0-.07,3.28,16.27,16.27,0,0,0,1.87,1.36,1.71,1.71,0,0,1,1.08,1.53c.64.92,3.19.89,4,.06a1.84,1.84,0,0,1,.67-1.3h-.79v-.41h1.79v-.31c.61-.43,1.17-.9,1.19-.89a13.44,13.44,0,0,0,0-2.14h-.34V8.7h.32a5.55,5.55,0,0,0-.19-1.38c-.06-.13-.14-.24-.2-.37H127V6.54Zm-8.57,5.11-.06,0a1.57,1.57,0,0,1-1-1.9,3.72,3.72,0,0,1,.46-1.09.18.18,0,0,1,.3,0,4.86,4.86,0,0,0,3.09,1.5.19.19,0,0,1,.18.21C123.13,11.32,121.24,11.93,120.3,11.65Zm2.07,1.78a8,8,0,0,1,.9-2,.28.28,0,0,1,.51,0,10.63,10.63,0,0,1,.92,2.06C124.65,13.76,122.37,13.9,122.37,13.43Zm5.12-4.79a3.72,3.72,0,0,1,.45,1.09c.23.94-.19,1.46-1,1.92-.93.29-2.83-.31-3-1.31a.2.2,0,0,1,.19-.22,5,5,0,0,0,1.83-.56h-.53V9.15h2V8.74h-.31l.13-.13A.19.19,0,0,1,127.49,8.64Z"/></svg>